<svg width="166" height="126" viewBox="0 0 166 126" fill="none" xmlns="http://www.w3.org/2000/svg">
<path d="M73.67 84.5402L63.83 108.61L63.78 108.52L63.7 108.73L27.66 25.3302C26.11 21.7102 24.93 18.5502 24.09 15.8502C23.25 13.1602 22.84 10.9402 22.84 9.17016C22.84 7.64016 23.11 6.26016 23.68 5.05016V5.03016C23.76 4.86016 23.84 4.68016 23.93 4.51016C24.12 4.18016 24.31 3.85016 24.51 3.51016C24.53 3.49016 24.54 3.46016 24.56 3.43016C24.97 2.81016 25.41 2.21016 25.9 1.65016C26.17 1.35016 26.44 1.07016 26.72 0.780156C27.1 0.390156 27.32 0.460156 27.6 0.200156C27.6 0.200156 27.61 0.190156 27.63 0.170156H0C2.38 1.62016 4.25 3.28016 5.59 5.15016C6.11 5.66016 6.74 6.67016 7.53 8.17016C8.3 9.69016 9.57001 12.4002 11.32 16.3402L58.39 125.06L58.47 124.87L74.98 84.5602H73.65L73.67 84.5402ZM76.01 78.6402L75.09 80.8702H76.51L76.7 80.4002L77.22 79.1002L77.41 78.6402H76H76.01ZM108.94 5.85016C108.94 5.85016 108.91 5.90016 108.89 5.91016C108.4 6.54016 107.94 7.21016 107.48 7.90016C107.46 7.93016 107.45 7.98016 107.42 8.01016C107.4 8.03016 107.39 8.06016 107.37 8.07016C107.15 8.40016 106.94 8.75016 106.75 9.08016C105.33 11.3902 104.1 13.7202 103.04 16.1102C102.8 16.6302 102.58 17.1702 102.36 17.7102L78.97 74.8302H77.71L97.52 26.1502C99.32 22.2602 100.49 18.9002 101.26 16.1802L102.07 13.7602L102.43 12.6902L106.52 0.160156" fill="#C9A25E"/>
<path d="M106.57 0L106.52 0.16L102.43 12.69L102.07 13.75V13.77L101.26 16.19C100.28 18.9 99.1404 22.05 97.5204 26.16L77.7104 74.84H78.9904L102.43 17.61C102.9 16.52 102.82 16.71 103.08 16.19C104.03 14.22 105.04 12.16 106.18 10.12C106.39 9.79 106.57 9.44 106.76 9.09C106.95 8.76 107.15 8.41 107.38 8.08C107.4 8.06 107.41 8.03 107.43 8.02C107.46 7.99 107.48 7.94 107.49 7.91M75.8703 79.09L75.3604 80.39H76.7803L77.2903 79.09H75.8703Z" fill="#C9A25E"/>
<path d="M106.57 0L151.89 102.67C153.83 107.33 155.78 111.07 157.47 114.06C159.29 117.05 160.96 119.24 162.78 120.79C163.16 121.18 163.55 121.44 163.95 121.83C164.46 122.21 164.85 122.48 165.37 122.73H138.69C140.11 121.7 141.15 120.41 141.8 119.11C142.45 117.69 142.7 116.12 142.7 114.58C142.7 113.04 142.45 111.07 141.8 108.63C141.15 106.17 140.11 103.32 138.69 100.08L130.51 80.86L130.15 80.01L129.57 78.64L103.1 16.19L103.07 16.13L102.09 13.78" fill="#C9A25E"/>
<path d="M30.4098 80.3897H16.1898L15.5498 78.1797H29.7598L30.4098 80.3897Z" fill="#C9A25E"/>
<path d="M135.95 78.6406V80.8606H61.8901L61.3701 78.6406H135.95Z" fill="#C9A25E"/>
</svg>
