<svg width="440" height="27" viewBox="0 0 440 27" fill="none" xmlns="http://www.w3.org/2000/svg">
    <g id="Vector">
        <path d="M434.069 27L428.138 14.5H440L434.069 27Z" fill="white"/>
        <path d="M426.558 27L420.627 14.5H432.489L426.558 27Z" fill="white"/>
        <path d="M419.047 27L413.116 14.5H424.978L419.047 27Z" fill="white"/>
        <path d="M411.536 27L405.605 14.5H417.466L411.536 27Z" fill="white"/>
        <path d="M404.024 27L398.094 14.5H409.955L404.024 27Z" fill="white"/>
        <path d="M396.513 27L390.582 14.5H402.444L396.513 27Z" fill="white"/>
        <path d="M389.002 27L383.071 14.5H394.933L389.002 27Z" fill="white"/>
        <path d="M381.491 27L375.56 14.5H387.422L381.491 27Z" fill="white"/>
        <path d="M373.98 27L368.049 14.5H379.91L373.98 27Z" fill="white"/>
        <path d="M366.468 27L360.538 14.5H372.399L366.468 27Z" fill="white"/>
        <path d="M358.957 27L353.026 14.5H364.888L358.957 27Z" fill="white"/>
        <path d="M351.446 27L345.515 14.5H357.377L351.446 27Z" fill="white"/>
        <path d="M343.935 27L338.004 14.5H349.866L343.935 27Z" fill="white"/>
        <path d="M336.424 27L330.493 14.5H342.354L336.424 27Z" fill="white"/>
        <path d="M328.912 27L322.981 14.5H334.843L328.912 27Z" fill="white"/>
        <path d="M321.401 27L315.47 14.5H327.332L321.401 27Z" fill="white"/>
        <path d="M313.89 27L307.959 14.5H319.821L313.89 27Z" fill="white"/>
        <path d="M306.379 27L300.448 14.5H312.31L306.379 27Z" fill="white"/>
        <path d="M298.867 27L292.937 14.5H304.798L298.867 27Z" fill="white"/>
        <path d="M291.356 27L285.425 14.5H297.287L291.356 27Z" fill="white"/>
        <path d="M283.845 27L277.914 14.5H289.776L283.845 27Z" fill="white"/>
        <path d="M276.334 27L270.403 14.5H282.265L276.334 27Z" fill="white"/>
        <path d="M268.823 27L262.892 14.5H274.753L268.823 27Z" fill="white"/>
        <path d="M261.311 27L255.381 14.5H267.242L261.311 27Z" fill="white"/>
        <path d="M253.8 27L247.869 14.5H259.731L253.8 27Z" fill="white"/>
        <path d="M246.289 27L240.358 14.5H252.22L246.289 27Z" fill="white"/>
        <path d="M238.778 27L232.847 14.5H244.709L238.778 27Z" fill="white"/>
        <path d="M231.267 27L225.336 14.5H237.197L231.267 27Z" fill="white"/>
        <path d="M223.755 27L217.825 14.5H229.686L223.755 27Z" fill="white"/>
        <path d="M216.244 27L210.313 14.5H222.175L216.244 27Z" fill="white"/>
        <path d="M208.733 27L202.802 14.5H214.664L208.733 27Z" fill="white"/>
        <path d="M201.222 27L195.291 14.5H207.153L201.222 27Z" fill="white"/>
        <path d="M193.711 27L187.78 14.5H199.641L193.711 27Z" fill="white"/>
        <path d="M186.199 27L180.269 14.5H192.13L186.199 27Z" fill="white"/>
        <path d="M178.688 27L172.757 14.5H184.619L178.688 27Z" fill="white"/>
        <path d="M171.177 27L165.246 14.5H177.108L171.177 27Z" fill="white"/>
        <path d="M163.666 27L157.735 14.5H169.597L163.666 27Z" fill="white"/>
        <path d="M156.155 27L150.224 14.5H162.085L156.155 27Z" fill="white"/>
        <path d="M148.643 27L142.713 14.5H154.574L148.643 27Z" fill="white"/>
        <path d="M141.132 27L135.201 14.5H147.063L141.132 27Z" fill="white"/>
        <path d="M133.621 27L127.69 14.5H139.552L133.621 27Z" fill="white"/>
        <path d="M126.11 27L120.179 14.5H132.041L126.11 27Z" fill="white"/>
        <path d="M118.599 27L112.668 14.5H124.53L118.599 27Z" fill="white"/>
        <path d="M111.087 27L105.157 14.5H117.018L111.087 27Z" fill="white"/>
        <path d="M103.576 27L97.6455 14.5H109.507L103.576 27Z" fill="white"/>
        <path d="M96.0651 27L90.1343 14.5H101.996L96.0651 27Z" fill="white"/>
        <path d="M88.5539 27L82.6231 14.5H94.4847L88.5539 27Z" fill="white"/>
        <path d="M81.0427 27L75.1119 14.5H86.9736L81.0427 27Z" fill="white"/>
        <path d="M73.5315 27L67.6007 14.5H79.4624L73.5315 27Z" fill="white"/>
        <path d="M66.0204 27L60.0895 14.5H71.9512L66.0204 27Z" fill="white"/>
        <path d="M58.5092 27L52.5783 14.5H64.44L58.5092 27Z" fill="white"/>
        <path d="M50.998 27L45.0672 14.5H56.9288L50.998 27Z" fill="white"/>
        <path d="M43.4868 27L37.556 14.5H49.4176L43.4868 27Z" fill="white"/>
        <path d="M35.9756 27L30.0448 14.5H41.9064L35.9756 27Z" fill="white"/>
        <path d="M28.4644 27L22.5336 14.5H34.3952L28.4644 27Z" fill="white"/>
        <path d="M20.9532 27L15.0224 14.5H26.884L20.9532 27Z" fill="white"/>
        <path d="M13.442 27L7.5112 14.5H19.3729L13.442 27Z" fill="white"/>
        <path d="M5.93082 27L3.05176e-05 14.5H11.8617L5.93082 27Z" fill="white"/>
        <path d="M440 14.5H3.05176e-05L0 0H440V14.5Z" fill="white"/>
    </g>
</svg>
